<svg width="72" height="64" viewBox="0 0 72 64" fill="none" xmlns="http://www.w3.org/2000/svg">
<path d="M27.9753 2.4126L30.4587 5.41553C33.6826 4.28599 37.1582 3.66948 40.781 3.66943C57.6329 3.66963 71.2937 16.9869 71.2937 33.4146C71.2934 49.8419 57.6327 63.1595 40.781 63.1597C26.6952 63.1595 14.8397 53.8543 11.3269 41.2065L10.6208 41.9497L10.2439 39.5317L10.8015 38.9731C10.4523 37.1723 10.2674 35.3143 10.2673 33.4146C10.2673 30.7732 10.6221 28.2121 11.2849 25.7739L10.7166 24.9302L11.158 21.6079L7.67944 25.1694L3.20288 25.9956L0.112061 29.0063L6.45386 20.7466L11.6228 20.48L12.5242 19.4653C11.3309 19.529 10.1834 18.7554 9.90796 18.4712C9.03428 17.3631 9.25991 15.9956 9.41089 15.2583C9.66663 13.3189 11.8975 10.8976 12.9812 9.9292L1.41089 7.96631V7.57373L13.3552 9.4751C14.4076 9.56381 14.2425 7.62412 13.8875 7.30713C13.6041 7.05355 13.8708 6.5335 14.0398 6.30518C14.6279 5.6057 15.5277 5.39741 15.9041 5.38037C16.5531 5.38074 17.4334 6.66468 17.7927 7.30713L16.9685 7.62451L16.8171 8.77783L15.6375 9.31104L15.5613 9.79248L18.364 10.1606L20.0125 5.27881L27.823 0.840332L27.9753 2.4126ZM38.5974 9.82959V10.2925H38.0505V10.5894H38.5974V11.1714H38.408L37.7429 12.6216L38.2537 12.7583L37.7429 14.1997H38.2537L37.2996 17.9272H37.8757L36.9441 20.2788H37.2996L36.6335 22.231H37.0779L36.6335 24.3159L37.0779 24.0942L36.323 26.4458H36.6335L35.946 28.4868H36.6335L35.7019 30.8833H36.5007L35.2585 32.813H35.7019L34.4597 34.4546H35.2585C32.8849 35.8743 27.943 38.9132 27.1609 39.7124C26.9519 40.0624 26.6595 40.939 27.1609 41.645L27.5447 40.939L27.9421 41.645L28.1189 40.939L28.2468 41.8979H28.4744V42.647L28.7996 42.8062V43.562L28.4744 43.6304V44.2886H29.2986V44.9917H28.656V45.5522L40.0828 46.394L43.6863 46.228L42.2292 46.3032C42.1599 46.5026 42.015 46.9335 42.4509 47.3071L41.0085 49.1343C41.0407 49.2728 39.8348 49.4664 34.7498 49.1343C33.7975 49.1344 32.1785 49.727 33.321 52.0952C33.6936 52.7013 35.0619 54.0585 37.5544 54.6401C38.2557 54.7873 39.7926 55.4818 40.3328 57.0815C40.3741 57.8446 40.2269 59.352 39.3386 59.5327C40.3898 59.389 42.4098 58.9675 42.9705 58.2974C43.4799 57.7799 44.188 56.9242 42.7791 55.7183C41.6077 54.7157 40.2303 53.7911 40.3328 53.2466C40.3004 53.0476 40.4873 52.4772 41.49 51.7896C42.532 51.6653 44.7585 51.3097 45.3279 50.8833C45.8018 50.5091 46.6136 49.5279 46.072 48.5952L45.6052 47.6177V46.1392L55.9333 45.6646V44.2202L56.1228 44.1167V43.5835L55.9333 43.4976V42.7759L56.1228 42.6899V41.2104L57.2927 42.0356V40.7466L58.1355 41.2104L56.4841 38.854L48.2468 34.8472C47.7538 34.1822 46.5958 32.3431 45.908 30.3071H46.3894L45.6326 29.0347H46.1482L45.0476 27.2983L44.8074 25.0962L45.0476 25.1821L44.2566 23.7036H44.6003L43.7927 21.9321L44.1707 22.0522L43.2761 19.8003L44.1707 20.0923L42.5544 17.3921H43.2761L42.1589 15.1392H42.6404L41.6423 13.3335H42.1589L41.6423 11.769V11.4595L42.3015 11.6343V11.2544L41.6423 11.0874V10.3989H41.3757L41.3279 11.0874L38.9529 10.3989V9.82959H38.5974ZM13.9373 14.2065L12.7078 15.6714L15.4421 16.8364C16.2065 15.7284 17.0466 14.6737 17.9529 13.6782L13.9373 14.2065ZM15.2869 10.7583L16.8523 12.3394H17.7029L18.3142 10.5503L15.4363 10.147L15.2869 10.7583ZM41.364 11.311V11.6313L38.907 11.2524V10.6001L41.364 11.311ZM25.8953 6.04248L24.9812 7.9624C25.6321 7.57759 26.2996 7.21594 26.9812 6.87842L26.3923 5.85889L25.8953 6.04248Z" fill="#171616"/>
</svg>
